<?xml version="1.0" encoding="UTF-8" standalone="no"?>
<svg
   xmlns:dc="http://purl.org/dc/elements/1.1/"
   xmlns:cc="http://creativecommons.org/ns#"
   xmlns:rdf="http://www.w3.org/1999/02/22-rdf-syntax-ns#"
   xmlns:svg="http://www.w3.org/2000/svg"
   xmlns="http://www.w3.org/2000/svg"
   xmlns:sodipodi="http://sodipodi.sourceforge.net/DTD/sodipodi-0.dtd"
   xmlns:inkscape="http://www.inkscape.org/namespaces/inkscape"
   version="1.1"
   id="Capa_1"
   x="0px"
   y="0px"
   viewBox="0 0 155 69"
   style="fill:#fff;"
   xml:space="preserve"
   sodipodi:docname="san-ticketin-2.svg"
   inkscape:version="1.0.2-2 (e86c870879, 2021-01-15)"><metadata
   id="metadata13"><rdf:RDF><cc:Work
       rdf:about=""><dc:format>image/svg+xml</dc:format><dc:type
         rdf:resource="http://purl.org/dc/dcmitype/StillImage" /></cc:Work></rdf:RDF></metadata><defs
   id="defs11"><pattern
     id="EMFhbasepattern"
     patternUnits="userSpaceOnUse"
     width="6"
     height="6"
     x="0"
     y="0" /><pattern
     id="EMFhbasepattern-0"
     patternUnits="userSpaceOnUse"
     width="6"
     height="6"
     x="0"
     y="0" /><pattern
     id="EMFhbasepattern-6"
     patternUnits="userSpaceOnUse"
     width="6"
     height="6"
     x="0"
     y="0" /><pattern
     id="EMFhbasepattern-7"
     patternUnits="userSpaceOnUse"
     width="6"
     height="6"
     x="0"
     y="0" /></defs><sodipodi:namedview
   pagecolor="#ffffff"
   bordercolor="#666666"
   borderopacity="1"
   objecttolerance="10"
   gridtolerance="10"
   guidetolerance="10"
   inkscape:pageopacity="0"
   inkscape:pageshadow="2"
   inkscape:window-width="1920"
   inkscape:window-height="1001"
   id="namedview9"
   showgrid="false"
   inkscape:zoom="5.1367886"
   inkscape:cx="86.296205"
   inkscape:cy="27.698827"
   inkscape:window-x="-9"
   inkscape:window-y="-9"
   inkscape:window-maximized="1"
   inkscape:current-layer="g1219"
   inkscape:document-rotation="0" />

<g
   id="g1219"
   transform="matrix(0.09672181,0,0,0.09672181,69.357454,28.865941)"><g
     id="g1234"
     transform="matrix(1.0696459,0,0,1.0696459,-5.8842819,123.45818)"><path
       style="fill:#fb0328;fill-opacity:1;fill-rule:nonzero;stroke:none"
       d="m -659.01142,-183.86227 c 10.33334,-15.66667 27,-23.33334 49,-2.33334 1.33334,-5.33333 2.33334,-10.33333 3.66667,-15 3.66667,-10.66667 10.33333,-19.33333 20,-25.33333 8.33333,-5.33334 17,-3.33334 23,4.33333 5,7 8.33333,14.66667 8.33333,23.33333 0.33333,26.33334 1,53.00001 3.33333,79.33334 0,1 -0.66666,1.66667 -0.66666,2.33333 -2,2 -4,1.33334 -6,0.66667 -22.33333,-6 -44.33333,-12.66667 -65.33333,-23 -15,-8 -28,-18.33333 -35.33334,-34 0,-3.66667 0,-7 0,-10.33333 z"
       id="path1036" /><path
       style="fill:#fcfcfd;fill-opacity:1;fill-rule:nonzero;stroke:none"
       d="m -264.34475,-158.86227 c 0,36.33333 -24.66667,59.999997 -62.66667,59.666657 -37.33333,0 -62.33333,-23.999997 -62.33333,-59.666657 0,-36.00001 25.33333,-60.00001 63,-59.66667 37.33333,0 62,23.66666 62,59.66667 z m -62,-35.66667 c -21.33334,0 -35,14 -34.66667,35.66667 0,21.66666 13.33333,35.33333 34,35.66666 21.33333,0 35,-14 35,-35.66666 0,-21.66667 -13.66667,-35.33334 -34.33333,-35.66667 z"
       id="path1038" /><path
       style="fill:#fcfcfd;fill-opacity:1;fill-rule:nonzero;stroke:none"
       d="m 486.98858,-103.19561 c -18.6667,-21.66666 -37,-43.33333 -57,-66.33333 0,23.66667 0,45.66667 0,68.33333 -9.6667,0 -18.3333,0 -27.6667,0 0,-38.33333 0,-76.33333 0,-115 11.3334,-1.66667 21.3334,-2.33333 30,9.33333 13,17.66667 28,33.66667 42.3334,50.66667 1.6666,2 2.6666,5 6.6666,5.66667 0,-22 0,-44 0,-66 9.6667,0 18.6667,0 28.6667,0 0,26.33333 0,52.33333 0,78.33333 -9.6667,10.33334 -22,19 -23,35 z"
       id="path1040" /><path
       style="fill:#fcfcfd;fill-opacity:1;fill-rule:nonzero;stroke:none"
       d="m 120.65525,-216.52894 c 0,27 0.33333,53.33333 0,79.66667 -0.66667,17.66666 -9.66667,29 -26.666665,34.33333 -17,5.333327 -34.33333,5.333327 -51,-0.33333 -16,-5.33334 -25.33333,-16.33334 -25.66667,-33.33334 -0.66666,-26.66666 -0.33333,-53 -0.33333,-80.33333 9.33333,0 18,0 27.33333,0 1.66667,2.33333 0.66667,5.33333 0.66667,8.33333 0.33333,21.33334 0,42.66667 0.33333,64 0,13 8.66667,20.66667 23,21 15.33334,0 24,-7.66666 24.33334,-21 0,-24 0,-48 0,-72.33333 9.333325,0 18.333325,0 27.999995,0 z"
       id="path1042" /><path
       style="fill:#fcfcfd;fill-opacity:1;fill-rule:nonzero;stroke:none"
       d="m 300.32191,-101.19561 c -10,0 -19.33333,0 -29.66666,0 4,-10.33333 8,-20 11.66666,-30 10.33334,-26 21,-52.33333 31,-78.66667 2.33334,-5.33333 4.66667,-7.33333 10.66667,-7.33333 18,0.33333 18,0 24.6667,16.66667 12.3333,31 24.6666,62.33333 37,93.33333 0.6666,1.66667 1.3333,3.66667 2.3333,6.33334 -9,0 -17.3333,-0.33334 -25.6667,0 -5.6666,0.33333 -5.6666,-4.33334 -6.6666,-7.33334 -6.3334,-15.66666 -2,-12.33333 -18.6667,-13 -7,0 -14,0.66667 -21,0 -6,-0.66666 -9.66667,1.66667 -11,7.66667 -1,4.33333 -3,8.33333 -4.66667,12.33333 z m 29,-77.66666 c -4.66666,13 -9,24.33333 -13.33333,36.33333 9.33333,0 17.66667,0 26.6667,0 -4.33337,-12 -8.33337,-23.33333 -13.33337,-36.33333 z"
       id="path1044" /><path
       style="fill:#fcfcfd;fill-opacity:1;fill-rule:nonzero;stroke:none"
       d="m -489.01142,-108.19561 c 0.66667,-7.66666 3,-14.66666 5,-22.33333 7.66667,1.66667 14.33333,5.66667 22,6.33333 4.33333,0.33334 9,1 13.66667,0.66667 6.33333,-0.33333 13.66666,-0.66667 15,-8.66667 1.33333,-7.33333 -5,-9.66666 -10.33334,-12 -7.33333,-4 -15.33333,-6.66666 -22.66666,-11 -15.66667,-8.66666 -21,-19.66666 -18.66667,-35.33333 2,-14 12,-24 28.66667,-27 16,-3 31.66666,-1 47.33333,6 -2,7.33333 -3.66667,14.66666 -5.66667,22.33333 -9.66666,-2.33333 -18.66666,-6 -28.33333,-5.33333 -3,0.33333 -6.33333,0.66666 -9.33333,1.66666 -6.33334,2.33334 -7.33334,7.66667 -2,12.00001 4,3 8.33333,5 12.66666,7.33333 7.33334,3.33333 14.66667,6.66667 21.66667,11 12.33333,8 16.66667,19.66667 14.66667,33.66667 -2,13.66666 -9.66667,22.33333 -23,26.66666 -21,6.666667 -41,2.999997 -60.66667,-6 z"
       id="path1046" /><path
       style="fill:#fcfcfd;fill-opacity:1;fill-rule:nonzero;stroke:none"
       d="m 186.65525,-216.52894 c 26.66666,0 53,0 79.66666,0 0,7.66666 0,15 0,23.33333 -17,0 -34,0 -51.66666,0 0,8 0,15.33334 0,23.66667 15.66666,0 31,0 47,0 0,8.33333 0,15.66667 0,24 -15.66667,0 -31,0 -47.33334,0 0,15.33333 0,29.33333 0,44.33333 -9.66666,0 -18.33333,0 -27.66666,0 0,-38.33333 0,-76.33333 0,-115.33333 z"
       id="path1048" /><path
       style="fill:#fcfcfd;fill-opacity:1;fill-rule:nonzero;stroke:none"
       d="m -257.01142,-216.19561 c 1.66667,-0.33333 2,-0.66667 2.33333,-0.66667 28.66667,-1.33333 28.66667,-1.33333 43,23.66667 4,6.33334 7.66667,12.66667 12.33334,20.33334 8,-13.66667 15.33333,-26.00001 22.66666,-38.66667 2.33334,-4 4.66667,-5.66667 9.33334,-5.66667 8,0.66667 16,0.33333 25.66666,0.33333 -10,15.66667 -18.33333,30.66667 -28.66666,44.33334 -12,16.33333 -17.66667,33.33333 -15.33334,53.33333 1,5.66667 0.33334,12 0.33334,18 -9.66667,0 -18.33334,0 -28.33334,0 0,-12.33333 0,-25 0,-37.66666 0.33334,-6 -1,-11.33334 -4.66666,-16.66667 -13,-20 -25.33334,-40 -38.66667,-60.66667 z"
       id="path1050" /><path
       style="fill:#fcfcfd;fill-opacity:1;fill-rule:nonzero;stroke:none"
       d="m 3.3219149,-192.86228 c -11.66666,0 -22.6666599,0 -34.3333299,0 0,30.66667 0,61.00001 0,91.66667 -9.33333,0 -18.33333,0 -28,0 0,-30.33333 0,-60.66666 0,-91.33333 -11.66667,0 -22.33333,0 -34,0 -1.33333,-8.33334 -0.66667,-15.66667 -0.66667,-24 32.33334,0 64.33334,0 96.9999999,0 0,7.66666 0,15 0,23.66666 z"
       id="path1052" /><path
       style="fill:#fb0328;fill-opacity:1;fill-rule:nonzero;stroke:none"
       d="m -528.67809,-196.86228 c -8,-22.33333 -16,-42.66666 -22.66666,-63.33333 -4,-12.33333 -1,-23.66667 5.66666,-27 6.66667,-3.33333 19.66667,2.33333 26.66667,12 1.66667,2 3,4.33333 4.66667,7 2.33333,-4.33333 4,-8.66667 6.33333,-12.33333 4.33333,-6 10,-9 18,-6.33334 7.66667,2.33334 8.33333,8.33334 8.66667,15 0,8 -2,15.33334 -5.66667,22.33334 -10,20 -25,36 -41.66667,52.66666 z"
       id="path1054" /><path
       style="fill:#fb0328;fill-opacity:1;fill-rule:nonzero;stroke:none"
       d="m 827.98858,48.804387 c 0,3.33334 0,7 0,10.33334 -2.6667,4.33333 -5,8.66666 -7.3333,13 -13,15 -30,23.66666 -47,33.000003 -5.6667,2.66666 -11.6667,5.33333 -18.3334,8 -2.3333,-7 0.6667,-13.666673 -0.3333,-20.000003 0,-14.66667 0.3333,-29.33334 0.3333,-44 2,-5 2.3334,-10.66667 5,-15.33334 6.3334,-11.66666 14.3334,-13.33333 23.6667,-3.66666 3,2.66666 4.6667,6.33333 7,9.66666 1,4.33334 2,8.66667 3.3333,13.66667 3.3334,-3.66667 6,-6.33333 8.6667,-9.33333 11.6667,-5 16.6667,-4.33334 25,4.66666 z"
       id="path1056" /><path
       style="fill:#fb0328;fill-opacity:1;fill-rule:nonzero;stroke:none"
       d="m 85.321915,20.804387 c 10.33334,-8.66666 14.999995,-18.6666604 22.999995,-26.3333304 8,-7.9999996 16,-16.6666696 28,-16.9999996 27,-1.33333 31.66667,11 34.33334,33 1.66666,15.66667 0.33333,31.66667 -0.33334,49.33333 16,-23.33333 31.66667,-44 49,-63.6666604 8.33334,-8.9999996 17,-16.3333396 31,-14.3333396 12.66667,1.66667 20.33334,8.3333396 24.66667,19.6666696 6,14.6666704 8,30.3333304 12,45.3333304 3.66667,13.66667 8.66667,26.66667 17.66667,38 12,16.000003 32.33333,20.333343 49.00003,9 29.6666,-19.66666 48.6666,-48.66666 68,-78 16.3333,-25.0000004 36,-48.66666 64,-62 24.3333,-11.66666 52.6666,-4 67,16.66667 5,7 7,14.33333 6,22.6666696 -1.6667,23.0000004 2.3333,45.3333304 11.3333,66.3333304 14,32.33333 42.6667,41.666673 73.6667,24.33333 30,-17 53,-40.33333 70.3333,-70 3.3333,-0.66666 6.3333,1.33334 9,2.33334 5.6667,2.66666 8.3333,7 5,13.33333 -23.3333,43.66667 -56.6667,76.000003 -107.3333,82.000003 -41,4.66667 -71.6667,-12.333333 -84.3334,-59.000003 -1,-3.33333 -3,-7 -2.6666,-11 -9,10.66667 -16,22.33333 -25.3334,32.33333 -12.3333,14 -24.6666,27.666673 -40.3333,38.000003 -35,22.66667 -59.6667,-1.66666 -64.6667,-29.000003 -7.3333,6.66667 -14.6666,13 -21.6666,20.000003 -8.6667,8.33334 -18,15.66667 -30,18 -34.6667,6.66667 -55.6667,-0.66666 -76.6667,-29.333333 -13.66667,-19 -19.33333,-40.66667 -24.33333,-63 -1,-5 -2.33334,-9.66667 -4,-15.33333 -5,1.66666 -7.33334,5.66666 -10,9 -15,19.66666 -30,39.66666 -45,59.33333 -11,14 -24.33334,18.666673 -41.33334,13.33333 -10.33333,-3.66666 -11.33333,-13.66666 -12.66666,-22.66666 -3,-18 -1.66667,-36.33334 -1.66667,-54.66667 -0.33333,-5.66667 -0.66667,-11.3333304 -2.33333,-17.66667042 -13,17.00000042 -23,35.00000042 -34.666665,52.00000042 -10,15 -16,31.33334 -21.33333,48.333343 -3.66667,11.66666 -8.33334,14 -19,11.66666 -11.33334,-2.33333 -14,-6 -13.33334,-18.000003 0.33334,-4 0,-8 0,-12.33333 -5.33333,0.66667 -8,4.66667 -11.66666,7 -19.33334,13.666673 -40.3333401,23.333333 -64.33334,23.666673 -43,0.33333 -71.000005,-23.333343 -78.666665,-65.666673 -0.33334,-1.66667 0,-3.66667 -2.33334,-5 -12.66666,19.33333 -27,37 -43.33333,53.33333 -7.33333,7.000003 -15.33333,13.000003 -23.66667,18.333343 -28.33333,17.33333 -52,3.33333 -61,-25.000003 -0.66666,-2.33334 -0.66666,-4.66667 -2.66666,-6.66667 -7.33334,9.33333 -15.66667,17.33333 -24,25.000003 -28.66667,25.33333 -78.33334,24 -104,-16.666673 -11.66667,-18.66666 -18.33334,-38.66666 -22.66667,-59.66666 -1.33333,-6 -2.33333,-12 -5.33333,-17.66667 -3,1 -4.33334,3.33333 -6,5.66667 -16.66667,21.66666 -33,43.66666 -50,65.33333 -9.66667,12.66667 -25.33334,17.000003 -40.33334,11 -7.66666,-3.33333 -9.66666,-10.66667 -11.33333,-18 -2,-9.33333 -2,-19 -1.66667,-28.66667 0,-8 0,-16 -0.33333,-24 -0.33333,-7.66666 -1,-15.3333304 -2,-25.6666604 -8,12.0000004 -14.66667,22.3333304 -21.66667,33.0000004 -14.33333,21.66666 -28.33333,43.33333 -34.99999,69.000003 -3.33334,12.33333 -8.66667,14.33333 -20.66667,11 -10.66667,-2.66667 -13,-7.66667 -11.33333,-19.000003 3.33333,-25.33334 5.66666,-51 9.33333,-76.33334 3.33333,-25.0000004 6,-50.66666 13,-75 1.33333,-3.66666 2.66667,-7 4.33333,-10.33333 2.33334,-6 7,-6.33333 12.33334,-4.66667 7.99999,2.66667 12.33333,11.66667 10.99999,20.33334 -4,22.33333 -8.66666,44.6666596 -9.66666,67.33333 0,1.66667 0,3.33333 0.33333,6.33333 8.33333,-6 12,-14.0000004 17.66667,-20.66666042 6,-6.99999998 12.33333,-12.66666958 20.33333,-17.33333958 8.33333,-5.33333 17,-5.66666 26.33333,-3.33333 9,2.33333 14.66667,7.66667 17,16.6666696 5.66667,19.3333304 3.66667,39.3333304 3,59.0000004 0,1.33333 -0.33333,2.33333 -0.66666,4.66666 6.33333,-5.33333 9.33333,-12 13.66666,-17.66666 12.33334,-16.66667 25.66667,-32.3333404 39,-48.3333404 15,-18.3333296 46.33334,-13.9999996 54,11.33334 5,16.6666604 7.66667,34.0000004 13,50.6666604 4,12.33334 9,24.33334 18.33334,33.66667 14,14.000003 30.66666,16.000003 47,4.66667 29.33333,-20.33334 48,-49.66667 67.66666,-78.33334 18,-26.66666 38.33334,-53.33333 71.66667,-64 21.66667,-7 46,1.33334 58.666675,19.66667 6,8.33333 6.33333,17.33333 5.66666,27.6666696 -1.33333,16.3333304 2.66667,32.3333304 7,48.3333304 2.66667,10.66667 7,21 14.66667,29.33333 14.33333,16 31.66667,21 51.66667,13.33334 25,-9.66667 44.33333,-26.66667 62,-46 1.66666,-2.33334 2.33333,-5.33334 2.66666,-8 3,-27.6666704 6.66667,-54.66667 12.33334,-81.66667 1.33333,-6.33333 3,-12.33333 5,-18.33333 2,-5.66667 4.33333,-11.66667 12.66666,-10 7,1.66666 14.33334,9.66666 13.33334,16.66666 -1.66667,12.33334 -4,25 -5.66667,37.33334 -1.66667,10.33333 -3.33333,20.33332958 -4.66667,30.6666596 -0.33333,2.6666704 0,5.6666704 0,11.0000004 z m -294.000005,64 c -0.33333,8.66667 3.66667,11.66667 11.66667,8.33334 4.33333,-2 8.66667,-4.33334 12.66667,-7.33334 29.66666,-23.33333 50,-53.33333 64.33333,-88.0000004 2.66667,-6 3.33333,-12.3333296 -1.66667,-16.6666596 -4,-4 -9,-0.33334 -13.33333,1 -34.33333,10.3333296 -67.66667,54.66666 -73.66667,102.66666 z M 525.65528,-9.1956134 c 0.3333,-9.6666596 -3,-12.3333296 -12.3334,-10.3333296 -2.6666,0.66667 -5.3333,1.66667 -8,2.66667 -37.3333,14.9999996 -65,60.33333 -70.3333,103.66666 -0.6667,5.66667 4,8.66667 9.6667,7.33334 4.6666,-1.33334 9,-4 13,-6.66667 29.6666,-22 49.6666,-51.33333 64.3333,-84.6666704 1.6667,-3.66666002 4,-7.66666 3.6667,-12 z"
       id="path1058" /><path
       style="fill:#fb0328;fill-opacity:1;fill-rule:nonzero;stroke:none"
       d="m 592.32188,-146.19561 c -20.3333,13.33334 -35.6666,31.66667 -53,47.666667 -3.3333,2.66667 -7.3333,4.66667 -11,6.66667 -2,1 -4.3333,1.66666 -6.6666,1.66666 -6.6667,0.33334 -13.6667,-1 -17.3334,-7.33333 -4,-6.333327 -0.6666,-12.333327 4,-16.999997 15.6667,-16 32.3334,-31.33333 51.6667,-43 11.3333,-6.66667 22.6667,-2.33333 32.3333,11.33333 z"
       id="path1060" /></g></g></svg>
