<?xml version="1.0" encoding="utf-8"?>
<!-- Generator: Adobe Illustrator 26.0.0, SVG Export Plug-In . SVG Version: 6.00 Build 0)  -->
<svg version="1.1" id="Capa_1" xmlns="http://www.w3.org/2000/svg" xmlns:xlink="http://www.w3.org/1999/xlink" x="0px" y="0px"
	 viewBox="0 0 150 146" style="enable-background:new 0 0 150 146;" xml:space="preserve">
<style type="text/css">
	.st0{fill:#FFFFFF;}
</style>
<g>
	<g>
		<g>
			<path class="st0" d="M62.5,8.1c-2.5-1.8-5.2-3.2-7.9-4.3c-4.1-1.6-8.7-1.8-13-0.4c-3.1,1.1-6.2,2.6-9,4.6
				c-1.8,1.3-3.5,2.7-5.1,4.3c-1.5,1.5-2.8,3.1-4,4.7c-1.6,2.3-3,4.6-4,7.1c-2,4.6-2.2,9.7-0.5,14.4c1.1,2.9,2.5,5.7,4.4,8.3
				c1.3,1.8,2.7,3.5,4.3,5.1c1.5,1.5,3.1,2.8,4.7,4c2.5,1.8,5.2,3.2,7.9,4.3c4.1,1.6,8.7,1.8,13,0.4c3.1-1.1,6.2-2.6,9-4.6
				c1.8-1.3,3.5-2.7,5.1-4.3c1.5-1.5,2.8-3.1,4-4.7c1.8-2.5,3.2-5.2,4.3-7.9c1.6-4.1,1.8-8.7,0.4-12.9c-1.1-3.1-2.6-6.2-4.6-9
				c-1.3-1.8-2.7-3.5-4.3-5.1C65.7,10.6,64.2,9.3,62.5,8.1z"/>
		</g>
		<g>
			<path class="st0" d="M62.5,90.1c-2.5-1.8-5.2-3.2-7.9-4.3c-4.1-1.6-8.7-1.8-13-0.4c-3.1,1.1-6.2,2.6-9,4.6
				c-1.8,1.3-3.5,2.7-5.1,4.3c-1.5,1.5-2.8,3.1-4,4.7c-1.6,2.3-3,4.6-4,7.1c-2,4.6-2.2,9.7-0.5,14.4c1.1,2.9,2.5,5.7,4.4,8.3
				c1.3,1.8,2.7,3.5,4.3,5.1c1.5,1.5,3.1,2.8,4.7,4c2.5,1.8,5.2,3.2,7.9,4.3c4.1,1.6,8.7,1.8,13,0.4c3.1-1.1,6.2-2.6,9-4.6
				c1.8-1.3,3.5-2.7,5.1-4.3c1.5-1.5,2.8-3.1,4-4.7c1.8-2.5,3.2-5.2,4.3-7.9c1.6-4.1,1.8-8.7,0.4-12.9c-1.1-3.1-2.6-6.2-4.6-9
				c-1.3-1.8-2.7-3.5-4.3-5.1C65.7,92.6,64.2,91.3,62.5,90.1z"/>
		</g>
	</g>
	<path class="st0" d="M124.9,8.5C102.2,18.6,86.2,43.7,86.2,73c0,29.3,16.1,54.4,38.8,64.5c5,2.2,9.5-4,5.8-8
		c-13.3-14.2-21.6-34.3-21.6-56.5s8.3-42.4,21.6-56.5C134.5,12.4,130,6.2,124.9,8.5z"/>
</g>
</svg>
